HIERARCHY
ROOT Hips
{
 OFFSET 0.000000 0.000000 0.000000
 CHANNELS 6 Xposition Yposition Zposition Yrotation Xrotation Zrotation
 JOINT Chest
 {
  OFFSET 0.000000 11.395451 -0.039534
  CHANNELS 3 Yrotation Xrotation Zrotation
  JOINT Chest2
  {
   OFFSET 0.000000 9.398669 0.071813
   CHANNELS 3 Yrotation Xrotation Zrotation
   JOINT Chest3
   {
    OFFSET 0.000000 8.489801 0.000000
    CHANNELS 3 Yrotation Xrotation Zrotation
    JOINT Chest4
    {
     OFFSET 0.000000 8.489801 0.000000
     CHANNELS 3 Yrotation Xrotation Zrotation
     JOINT Neck
     {
      OFFSET 0.000000 12.404889 0.000000
      CHANNELS 3 Yrotation Xrotation Zrotation
      JOINT Head
      {
       OFFSET 0.000000 8.903270 0.092239
       CHANNELS 3 Yrotation Xrotation Zrotation
       End Site
       {
        OFFSET 0.000000 17.592497 0.007158
       }
      }
     }
     JOINT RightCollar
     {
      OFFSET -3.196775 6.966722 0.000000
      CHANNELS 3 Yrotation Xrotation Zrotation
      JOINT RightShoulder
      {
       OFFSET -15.955896 0.000000 0.000000
       CHANNELS 3 Yrotation Xrotation Zrotation
       JOINT RightElbow
       {
        OFFSET -24.792472 0.000000 0.000000
        CHANNELS 3 Yrotation Xrotation Zrotation
        JOINT RightWrist
        {
         OFFSET -20.900115 0.000000 0.025002
         CHANNELS 3 Yrotation Xrotation Zrotation
         End Site
         {
          OFFSET -16.056692 0.000000 0.000000
         }
        }
       }
      }
     }
     JOINT LeftCollar
     {
      OFFSET 3.196775 6.966722 0.000000
      CHANNELS 3 Yrotation Xrotation Zrotation
      JOINT LeftShoulder
      {
       OFFSET 15.955896 0.000000 0.000000
       CHANNELS 3 Yrotation Xrotation Zrotation
       JOINT LeftElbow
       {
        OFFSET 24.792472 0.000000 0.000000
        CHANNELS 3 Yrotation Xrotation Zrotation
        JOINT LeftWrist
        {
         OFFSET 20.900115 0.000000 0.025002
         CHANNELS 3 Yrotation Xrotation Zrotation
         End Site
         {
          OFFSET 16.056692 0.000000 0.000000
         }
        }
       }
      }
     }
    }
   }
  }
 }
 JOINT RightHip
 {
  OFFSET -9.568995 0.193718 0.019767
  CHANNELS 3 Yrotation Xrotation Zrotation
  JOINT RightKnee
  {
   OFFSET 0.000000 -56.649296 0.015402
   CHANNELS 3 Yrotation Xrotation Zrotation
   JOINT RightAnkle
   {
    OFFSET 0.000000 -41.365147 0.021264
    CHANNELS 3 Yrotation Xrotation Zrotation
    JOINT RightToe
    {
     OFFSET 0.000000 -7.465940 17.672538
     CHANNELS 3 Yrotation Xrotation Zrotation
     End Site
     {
      OFFSET 0.000000 -1.736315 7.837145
     }
    }
   }
  }
 }
 JOINT LeftHip
 {
  OFFSET 9.568995 0.193718 0.019767
  CHANNELS 3 Yrotation Xrotation Zrotation
  JOINT LeftKnee
  {
   OFFSET 0.000000 -56.649296 0.015402
   CHANNELS 3 Yrotation Xrotation Zrotation
   JOINT LeftAnkle
   {
    OFFSET 0.000000 -41.365147 0.021264
    CHANNELS 3 Yrotation Xrotation Zrotation
    JOINT LeftToe
    {
     OFFSET 0.000000 -7.465940 17.672538
     CHANNELS 3 Yrotation Xrotation Zrotation
     End Site
     {
      OFFSET 0.000000 -1.736315 7.837145
     }
    }
   }
  }
 }
}
MOTION
Frames: 7
Frame Time: 0.016667
38.915887 106.496993 278.668295 61.412757 -6.210030 0.263676 -0.029923 3.817863 0.574549 -0.018020 1.696790 0.255456 -0.018020 1.696790 0.255456 -0.014224 1.272585 0.191628 0.671830 13.975645 -1.102033 1.702836 -10.208195 -2.344066 0.874514 4.848517 7.897889 7.178941 -7.135773 76.072441 2.472867 -1.733251 -1.719087 -2.169323 0.847696 1.086183 -0.687557 -0.711963 -9.871588 5.810607 -6.930005 -75.441295 -2.794067 -3.974295 1.176257 5.750850 0.510670 -2.689204 0.579100 10.641186 4.933965 -1.537475 0.297454 -0.586302 1.735823 -6.898478 -4.707905 0.000000 -0.000000 0.000000 3.092225 9.354098 -0.149776 -0.370968 6.905587 -0.176881 7.015927 -9.658276 0.042844 0.000000 0.000000 0.000000
38.811947 106.482528 278.663739 61.361817 -6.152931 0.270730 -0.038859 3.788642 0.532708 -0.021612 1.683796 0.236943 -0.021613 1.683797 0.236943 -0.016862 1.262840 0.177754 0.680584 14.011492 -1.077777 1.708826 -10.142017 -2.300901 0.900877 4.824174 7.956573 7.176561 -7.145084 76.150613 2.599915 -1.671325 -1.655092 -2.168232 0.840026 1.062113 -0.681842 -0.698030 -9.782368 5.780865 -6.885813 -75.442605 -2.692114 -4.017019 1.212113 5.728034 0.527404 -2.718074 0.638538 10.520185 5.050802 -1.624482 0.276751 -0.820725 1.807734 -6.839852 -4.589821 0.000000 0.000000 0.000000 3.128546 9.198605 -0.131015 -0.382093 6.999360 -0.217072 7.049849 -9.716523 0.046178 0.000000 -0.000000 0.000000
38.708007 106.468063 278.659183 61.310890 -6.095827 0.277733 -0.047812 3.759377 0.490904 -0.025217 1.670783 0.218446 -0.025217 1.670784 0.218446 -0.019509 1.253079 0.163892 0.689391 14.047362 -1.053559 1.714951 -10.075792 -2.257842 0.927174 4.799849 8.015278 7.174112 -7.154328 76.228799 2.726908 -1.609477 -1.590790 -2.167124 0.832426 1.038021 -0.676101 -0.684000 -9.693163 5.751123 -6.841627 -75.443981 -2.590107 -4.059844 1.247674 5.705166 0.544178 -2.746887 0.697834 10.399168 5.167536 -1.711115 0.255573 -1.055210 1.879718 -6.781401 -4.471638 0.000000 0.000000 0.000000 3.164846 9.043120 -0.112256 -0.393265 7.093113 -0.257324 7.083758 -9.774778 0.049501 0.000000 0.000000 0.000000
38.610109 106.456261 278.652845 61.267346 -6.041678 0.280400 -0.057255 3.730076 0.454333 -0.029086 1.657755 0.202276 -0.029086 1.657755 0.202276 -0.022362 1.243307 0.151775 0.694487 14.085165 -1.028884 1.713876 -10.006080 -2.212430 0.955027 4.773507 8.073108 7.162630 -7.157213 76.299145 2.847524 -1.541653 -1.526244 -2.170024 0.831107 1.020589 -0.669471 -0.671672 -9.611457 5.721394 -6.799227 -75.450086 -2.497043 -4.095620 1.278612 5.687319 0.561419 -2.776242 0.752962 10.284574 5.276686 -1.790409 0.240433 -1.262676 1.941076 -6.728371 -4.370358 0.000000 0.000000 0.000000 3.196832 8.902618 -0.090372 -0.405737 7.171600 -0.292299 7.115127 -9.824846 0.051394 0.000000 0.000000 0.000000
38.520905 106.448707 278.643356 61.234395 -5.990945 0.276418 -0.068250 3.699534 0.425445 -0.033710 1.644174 0.189530 -0.033710 1.644174 0.189530 -0.025791 1.233120 0.142228 0.694655 14.127118 -1.003568 1.703192 -9.928800 -2.163794 0.986029 4.742237 8.130409 7.133620 -7.148235 76.356282 2.962737 -1.457427 -1.457640 -2.180322 0.841196 1.015914 -0.661525 -0.662129 -9.541183 5.690991 -6.758809 -75.463999 -2.410572 -4.123786 1.306070 5.679408 0.580508 -2.807518 0.801361 10.178980 5.374978 -1.859994 0.234236 -1.430121 1.987837 -6.682703 -4.293809 0.000000 0.000000 0.000000 3.221873 8.784123 -0.063309 -0.420088 7.226804 -0.319428 7.143839 -9.862358 0.050055 0.000000 -0.000000 0.000000
38.437744 106.443816 278.632086 61.208810 -5.943177 0.268133 -0.079731 3.668986 0.401781 -0.038595 1.630591 0.179106 -0.038595 1.630591 0.179106 -0.029422 1.222932 0.134423 0.691102 14.171017 -0.977803 1.685311 -9.848002 -2.112835 1.018569 4.708927 8.186833 7.095617 -7.132914 76.405515 3.071600 -1.367246 -1.388761 -2.194674 0.857464 1.017962 -0.652723 -0.654343 -9.478395 5.660594 -6.720197 -75.482627 -2.333071 -4.144874 1.329052 5.676521 0.600073 -2.839362 0.845623 10.079790 5.465701 -1.922502 0.234363 -1.570536 2.023940 -6.642323 -4.234238 0.000000 0.000000 0.000000 3.242573 8.680603 -0.033133 -0.435706 7.266750 -0.341250 7.170027 -9.891674 0.047298 -0.000000 -0.000000 0.000000
38.358711 106.439499 278.621353 61.188311 -5.899978 0.258257 -0.088977 3.642116 0.381156 -0.042518 1.618645 0.170013 -0.042518 1.618645 0.170013 -0.032336 1.213972 0.127614 0.683693 14.212148 -0.951647 1.660124 -9.772432 -2.059729 1.049488 4.680227 8.240432 7.065210 -7.121510 76.455031 3.164909 -1.296304 -1.331236 -2.207008 0.870606 1.015203 -0.643536 -0.646970 -9.418750 5.632253 -6.684614 -75.501349 -2.280655 -4.153305 1.340161 5.669001 0.616400 -2.868290 0.889455 9.985669 5.551210 -1.978552 0.239147 -1.695827 2.050536 -6.606414 -4.185303 0.000000 0.000000 0.000000 3.262480 8.585944 -0.002905 -0.452050 7.300249 -0.360085 7.191547 -9.917695 0.047126 -0.000000 -0.000000 -0.000000
